# xmcd CD database file
#
# Track frame offsets:
#	150
#	42928
#	74805
#	118414
#	152994
#	202513
#	210454
#
# Disc length: 3441 seconds
#
# Revision: 2
# Processed by: cddbd v1.5.2PL0 Copyright (c) Steve Scherf et al.
# Submitted via: CDex 1.78
#
DISCID=650d6f07
DTITLE=Ram Dass - Meditations on the Gita
DYEAR=2003
DGENRE=New Age
TTITLE0=Meditation #1
TTITLE1=Meditation #2
TTITLE2=Meditation #3
TTITLE3=Meditation #4
TTITLE4=Meditation #5
TTITLE5=Gita Chant
TTITLE6=Shri Ram Chant
EXTD=YEAR: 2003
EXTT0=
EXTT1=
EXTT2=
EXTT3=
EXTT4=
EXTT5=
EXTT6=
PLAYORDER=
